<?xml version="1.0" encoding="UTF-8"?>
<svg version="1.1" xmlns="http://www.w3.org/2000/svg" width="1024" height="1024">
<path d="M0 0 C1.90446267 -0.0040778 3.80892297 -0.00942638 5.71337891 -0.01593018 C10.82912128 -0.02946604 15.94467971 -0.02436261 21.0604248 -0.01479292 C26.4491419 -0.00712436 31.83784469 -0.01426169 37.2265625 -0.01895142 C46.27086169 -0.02438822 55.31508705 -0.01727214 64.359375 -0.00292969 C74.77157509 0.01339276 85.18359885 0.00810278 95.59579468 -0.0084089 C104.58321629 -0.02208323 113.57058525 -0.02391453 122.55801392 -0.0160929 C127.90491622 -0.0114489 133.25173602 -0.01070027 138.59863281 -0.02070236 C143.62872448 -0.02945692 148.65859188 -0.02319748 153.68865967 -0.00601959 C155.51942576 -0.00209959 157.3502112 -0.00311026 159.18096924 -0.00980759 C174.70312553 -0.06129551 189.92071949 1.31141506 204.6875 6.45068359 C205.55310547 6.74740967 206.41871094 7.04413574 207.31054688 7.34985352 C222.0914274 12.63469016 235.34387164 20.18070443 247.25 30.38818359 C247.76111328 30.82243652 248.27222656 31.25668945 248.79882812 31.70410156 C274.58635933 53.78810435 290.57157673 84.6401915 294.25 118.38818359 C294.57309821 124.274255 294.48476659 130.17161851 294.4453125 136.06396484 C294.44157247 137.72690153 294.43873019 139.38984045 294.43673706 141.05278015 C294.42917839 145.38457554 294.40959872 149.71623224 294.3873291 154.04797363 C294.36670126 158.48622767 294.35769949 162.92450459 294.34765625 167.36279297 C294.32634377 176.03798612 294.2923043 184.7130675 294.25 193.38818359 C295.19715567 193.38449642 296.14431133 193.38080925 297.12016869 193.37701035 C320.23430736 193.28796091 343.34842362 193.22236185 366.46269798 193.18093491 C377.64088436 193.16036539 388.81895698 193.13235279 399.99707031 193.08642578 C409.7471292 193.04638547 419.49710565 193.02071008 429.24724448 193.01182961 C434.4033407 193.00664383 439.55920121 192.99457406 444.71522141 192.96526337 C449.58256472 192.93782169 454.44957847 192.92979578 459.31699181 192.93575287 C461.08971265 192.93466534 462.8624462 192.92688459 464.63509941 192.91136169 C491.50451319 192.68789826 513.75155531 200.25388643 533.25 219.38818359 C533.93707031 220.05076172 534.62414062 220.71333984 535.33203125 221.39599609 C547.56222495 234.08452052 554.47999687 251.22744555 556.36471558 268.57492065 C556.44874221 269.34817243 556.53276884 270.12142421 556.61934173 270.91810787 C557.56430576 280.44469562 557.51454739 289.96184072 557.47705078 299.52539062 C557.47648509 301.57728062 557.47680631 303.62917103 557.47793579 305.68106079 C557.47850413 311.19225225 557.46683487 316.70335472 557.45278788 322.2145257 C557.44019301 327.99602958 557.43910317 333.77753603 557.43673706 339.55905151 C557.43054782 350.48075582 557.41417197 361.40241956 557.39403808 372.3241061 C557.37159903 384.76926291 557.36066561 397.21442178 557.35064721 409.65959382 C557.32980319 435.2358128 557.29467748 460.81199591 557.25 486.38818359 C554.25 486.38818359 554.25 486.38818359 551.71875 483.93115234 C550.72204347 482.81900567 549.73293295 481.70002204 548.75 480.57568359 C547.66967832 479.37492454 546.58761304 478.17573216 545.50390625 476.97802734 C544.95879395 476.3732959 544.41368164 475.76856445 543.85205078 475.14550781 C536.57457651 467.16268858 528.72047685 460.07998469 520.25 453.38818359 C519.48558594 452.75654297 518.72117187 452.12490234 517.93359375 451.47412109 C466.56595148 409.23270968 395.95574923 384.17344869 329.25 387.38818359 C328.27933594 387.43458984 327.30867187 387.48099609 326.30859375 387.52880859 C285.142321 389.66731627 246.49470044 398.59465008 209.25 416.38818359 C208.5482666 416.71786133 207.8465332 417.04753906 207.12353516 417.38720703 C181.65158405 429.38905914 158.60110907 445.70134642 138.01953125 464.84130859 C135.80388098 466.87883183 133.55761123 468.83300774 131.25 470.76318359 C121.54338569 479.22381429 113.35521085 489.36722395 105.60449219 499.60107422 C104.70650383 500.78587501 103.80354864 501.96692876 102.89550781 503.14404297 C94.76608129 513.69064239 87.82492771 524.81613648 81.25 536.38818359 C80.78062012 537.2102832 80.31124023 538.03238281 79.82763672 538.87939453 C61.9388902 570.57161166 51.45840422 605.49197315 46.25 641.38818359 C46.11867676 642.28988281 45.98735352 643.19158203 45.85205078 644.12060547 C39.76212374 688.43272539 47.58895689 731.72900264 59.25 774.38818359 C58.40110703 775.23485596 57.55221405 776.08152832 56.67759705 776.95385742 C48.65683239 784.9543029 40.63874563 792.95742363 32.62323666 800.96313477 C28.50284184 805.07832301 24.381527 809.1925808 20.25805664 813.3046875 C16.27472251 817.27711345 12.29387449 821.25201551 8.31469917 825.22860718 C6.80023048 826.74123588 5.28488557 828.25298785 3.76862907 829.76382446 C1.6362755 831.88886224 -0.49287012 834.01706719 -2.62133789 836.14599609 C-3.55138893 837.07065422 -3.55138893 837.07065422 -4.50022888 838.01399231 C-20.53358283 854.08469039 -32.19422435 872.0342581 -39.99145508 893.35864258 C-40.87309214 895.71752539 -41.81194344 898.05123885 -42.75 900.38818359 C-78.29239895 900.45693735 -113.83478618 900.5097568 -149.37723801 900.54137958 C-153.57888469 900.54513144 -157.78053125 900.54901443 -161.98217773 900.55297852 C-162.81860583 900.55376545 -163.65503392 900.55455238 -164.51680832 900.55536316 C-178.03790188 900.56839641 -191.55895694 900.59203873 -205.08002771 900.61964198 C-218.96682013 900.64775419 -232.85359247 900.66437212 -246.74041218 900.67044908 C-255.30067953 900.67455349 -263.86083805 900.68748952 -272.42107188 900.71193299 C-278.30112341 900.72786208 -284.18111916 900.73256783 -290.06119067 900.72868773 C-293.44738601 900.72677724 -296.83324023 900.73125549 -300.21942711 900.74580002 C-330.08256571 900.86772709 -354.58946886 895.82976714 -376.9375 874.51318359 C-399.30639742 851.29256462 -400.91179238 822.98764829 -400.87698364 792.48815918 C-400.87813729 790.27928565 -400.87972645 788.07041231 -400.88171089 785.86153936 C-400.88587068 779.82035165 -400.88382869 773.77917981 -400.88072467 767.73799205 C-400.87869032 761.88286123 -400.8813625 756.02773374 -400.88387203 750.17260338 C-400.88912618 737.46509073 -400.88868601 724.75758313 -400.88579312 712.05007 C-400.88327399 700.92926875 -400.88262253 689.80846933 -400.88381577 678.68766785 C-400.88389215 677.94896642 -400.88396854 677.21026499 -400.88404724 676.44917868 C-400.88435859 673.45027764 -400.88467699 670.4513766 -400.885007 667.45247557 C-400.88806353 639.341151 -400.88529646 611.22982963 -400.8799101 583.11850556 C-400.87516477 558.16298637 -400.87558941 533.20747227 -400.88037109 508.25195312 C-400.8857299 480.19085757 -400.88784673 452.12976484 -400.88475883 424.06866884 C-400.88443813 421.07534568 -400.88412529 418.08202251 -400.88381577 415.08869934 C-400.88373669 414.35170876 -400.88365761 413.61471818 -400.88357614 412.85539455 C-400.88244039 401.74369874 -400.88376572 390.63200498 -400.88629532 379.52030945 C-400.88915834 366.88126406 -400.88843173 354.24222448 -400.88301457 341.60317981 C-400.88038991 335.15694644 -400.87935159 328.71072342 -400.88266373 322.26449013 C-400.8856521 316.3589926 -400.88399162 310.45351497 -400.87868617 304.54801923 C-400.87757282 302.4163052 -400.87812906 300.28458948 -400.88056196 298.15287656 C-400.91423096 266.19021844 -397.0765906 240.88248461 -374.5625 216.70068359 C-359.09761359 201.82956246 -337.18541862 193.17955532 -315.84693909 193.26792908 C-314.69865652 193.26664744 -314.69865652 193.26664744 -313.52717632 193.26533991 C-310.97846109 193.26370119 -308.42981262 193.26918 -305.88110352 193.2746582 C-304.04758201 193.27494045 -302.21406038 193.27478161 -300.38053894 193.2742157 C-295.41415976 193.27392918 -290.44780481 193.27980242 -285.48143125 193.28678966 C-280.28709617 193.2930474 -275.09276051 193.29362891 -269.89842224 193.29481506 C-260.06717749 193.29792124 -250.23594388 193.30612501 -240.40470403 193.31616455 C-229.21007664 193.32734784 -218.01544871 193.33284173 -206.82081711 193.33785999 C-183.79720524 193.34830822 -160.77360324 193.36589385 -137.75 193.38818359 C-137.75999275 192.03873154 -137.75999275 192.03873154 -137.77018738 190.66201782 C-137.83078517 182.10285799 -137.87621835 173.54377221 -137.90543652 164.98444557 C-137.92096376 160.58605274 -137.94195914 156.18784001 -137.97631836 151.78955078 C-138.00938156 147.52955786 -138.02694971 143.269736 -138.03463173 139.00962448 C-138.04009241 137.40006194 -138.0507497 135.79050667 -138.06719017 134.18101883 C-138.21530796 119.05194576 -136.64770342 104.19713913 -131.625 89.82568359 C-131.3256958 88.95419678 -131.0263916 88.08270996 -130.71801758 87.18481445 C-118.72456415 53.58048681 -93.31660873 26.84287706 -61.25 11.57568359 C-41.54632964 2.60513797 -21.46041506 -0.07850701 0 0 Z M-21.75 118.38818359 C-35.68767174 138.18440211 -26.75 180.27071624 -26.75 193.38818359 C42.55 193.38818359 111.85 193.38818359 183.25 193.38818359 C187.25303804 158.92424425 187.25303804 158.92424425 178.5 118.57568359 C172.21253707 112.46287241 165.71874665 111.26802889 157.17950439 111.2477417 C156.12906484 111.24328502 156.12906484 111.24328502 155.05740428 111.2387383 C152.71696824 111.23008491 150.37658356 111.22854591 148.03613281 111.22705078 C146.35543713 111.22242023 144.67474249 111.21739525 142.99404907 111.21200562 C138.43190327 111.19890246 133.86977218 111.19244072 129.30761051 111.18799496 C126.45532344 111.18506086 123.60304037 111.18095541 120.75075531 111.17649078 C111.82067485 111.16282132 102.89060355 111.15315198 93.96051335 111.14928889 C83.66304338 111.14480941 73.36570623 111.12726429 63.06827664 111.0982883 C55.10121937 111.07665035 47.1341994 111.06658348 39.16711307 111.06524777 C34.41217103 111.06420126 29.65735395 111.05832613 24.90244293 111.04042816 C20.42741255 111.02391094 15.95260057 111.02180965 11.47755051 111.03056717 C9.83973733 111.03133559 8.20191224 111.02702062 6.56412888 111.01710892 C-8.85120637 110.74158327 -8.85120637 110.74158327 -21.75 118.38818359 Z " fill="#2F2F2F" transform="translate(433.75,16.61181640625)"/>
<path d="M0 0 C0.88558594 0.69351563 1.77117187 1.38703125 2.68359375 2.1015625 C13.17922114 10.47978466 23.54928789 19.52256464 32 30 C32.90995815 31.09782048 33.82013593 32.19545894 34.73046875 33.29296875 C66.49433602 71.90726387 84.26112909 119.06180103 86 169 C86.061875 170.48306641 86.061875 170.48306641 86.125 171.99609375 C87.3249257 228.46759712 66.07117056 284.20999215 27.49609375 325.31640625 C25.36940178 327.60284973 23.32927439 329.92987084 21.3125 332.3125 C17.8461458 336.28216559 14.06535473 339.65394974 10 343 C9.21858643 343.6499292 9.21858643 343.6499292 8.42138672 344.31298828 C-38.42416302 383.15570176 -97.13712646 401.88181254 -158 396.3125 C-188.17294211 393.01780595 -215.90306662 383.88998732 -242.79296875 369.95874023 C-245.05755253 368.8007835 -245.05755253 368.8007835 -248 369 C-250.0903559 370.65887709 -250.0903559 370.65887709 -252.25276184 372.93237305 C-253.12013977 373.80429794 -253.9875177 374.67622284 -254.88117981 375.5745697 C-255.83992788 376.55350712 -256.79855729 377.53256075 -257.75708008 378.51171875 C-258.76858699 379.53389142 -259.78080134 380.55536445 -260.79367065 381.57618713 C-262.97821382 383.78041739 -265.15815816 385.98906477 -267.3348484 388.2010498 C-270.78653582 391.70762658 -274.25124808 395.20113411 -277.71842957 398.69238281 C-287.57775593 408.62413323 -297.41971348 418.57298481 -307.24780273 428.53564453 C-312.67271071 434.03459985 -318.10866282 439.52240245 -323.55631179 444.99883175 C-326.99466536 448.45665683 -330.41913111 451.92747128 -333.8335005 455.40897274 C-335.97899855 457.59007761 -338.1373414 459.75812992 -340.29922104 461.92298698 C-341.28721011 462.91733081 -342.27014582 463.91673053 -343.24707985 464.92193794 C-355.81762451 477.84147003 -370.85673502 485.83017736 -389.125 486.4375 C-407.17055302 485.67948897 -420.81195512 478.8945982 -433 466 C-444.6985305 452.41599206 -447.29056856 436.3083882 -446 419 C-443.27159426 400.00319779 -429.94349697 387.77725808 -416.98217773 374.86865234 C-416.01513002 373.90188761 -415.04830424 372.93490084 -414.0816803 371.9677124 C-411.48948733 369.37523576 -408.89425124 366.78582599 -406.2984035 364.19700956 C-403.5739977 361.47890976 -400.85247604 358.75792511 -398.13063049 356.03726196 C-392.99054135 350.90026497 -387.84791144 345.76581956 -382.70433432 340.63231528 C-376.8425061 334.78171438 -370.98356083 328.92822997 -365.12484062 323.07451701 C-353.08640304 311.04649583 -341.04439993 299.02205065 -329 287 C-330.29541696 283.71935205 -331.67386885 280.56771842 -333.28515625 277.4296875 C-358.43869064 227.44217361 -363.99303062 173.19282035 -351 119 C-350.81598633 118.23236328 -350.63197266 117.46472656 -350.44238281 116.67382812 C-342.17504427 83.39053174 -324.17865196 52.31297822 -301.01953125 27.20703125 C-299.26095093 25.28517848 -297.59180225 23.32352511 -295.9375 21.3125 C-293.26490361 18.17128396 -290.3087368 15.52115924 -287.1640625 12.859375 C-285.71233924 11.61204599 -284.29007162 10.3296587 -282.8984375 9.015625 C-252.26625997 -19.82704388 -211.23358624 -37.44535531 -170 -44 C-169.27022949 -44.11714355 -168.54045898 -44.23428711 -167.78857422 -44.35498047 C-109.08433127 -53.25517319 -46.4128747 -36.99673753 0 0 Z M-198 64 C-198.58797363 64.3290332 -199.17594727 64.65806641 -199.78173828 64.99707031 C-229.35044913 81.8144318 -250.21329696 109.26576447 -259.43457031 141.92138672 C-267.86868851 172.92660363 -264.00567646 204.29932968 -250 233 C-249.51660156 233.99515625 -249.03320312 234.9903125 -248.53515625 236.015625 C-233.81613176 264.55666971 -206.37738898 286.98363047 -176 297 C-142.20436378 307.32989322 -107.41394497 304.45306885 -76 288.1875 C-67.99261889 283.86800923 -60.91229027 278.91576087 -54 273 C-53.4942041 272.57638184 -52.9884082 272.15276367 -52.46728516 271.71630859 C-28.35972988 251.41159225 -12.7767289 221.55905828 -9.1875 190.25976562 C-6.16945325 153.88601472 -15.72506155 120.50435714 -39.27294922 92.48535156 C-49.24585107 80.82256608 -60.59374797 71.53708301 -74 64 C-75.07765625 63.39285156 -76.1553125 62.78570313 -77.265625 62.16015625 C-115.03498322 42.08969496 -160.90033074 43.21951981 -198 64 Z " fill="#2F2F2F" transform="translate(905,520)"/>
</svg>
